%TF.GenerationSoftware,KiCad,Pcbnew,8.0.6*%
%TF.CreationDate,2024-11-04T20:56:57+05:30*%
%TF.ProjectId,power_supply_kicad,706f7765-725f-4737-9570-706c795f6b69,rev?*%
%TF.SameCoordinates,Original*%
%TF.FileFunction,Copper,L1,Top*%
%TF.FilePolarity,Positive*%
%FSLAX46Y46*%
G04 Gerber Fmt 4.6, Leading zero omitted, Abs format (unit mm)*
G04 Created by KiCad (PCBNEW 8.0.6) date 2024-11-04 20:56:57*
%MOMM*%
%LPD*%
G01*
G04 APERTURE LIST*
%TA.AperFunction,ComponentPad*%
%ADD10C,1.600000*%
%TD*%
%TA.AperFunction,ComponentPad*%
%ADD11R,3.000000X3.000000*%
%TD*%
%TA.AperFunction,ComponentPad*%
%ADD12C,3.000000*%
%TD*%
%TA.AperFunction,ComponentPad*%
%ADD13R,1.600000X1.600000*%
%TD*%
%TA.AperFunction,ComponentPad*%
%ADD14C,1.400000*%
%TD*%
%TA.AperFunction,ComponentPad*%
%ADD15O,1.400000X1.400000*%
%TD*%
%TA.AperFunction,ComponentPad*%
%ADD16R,2.000000X1.905000*%
%TD*%
%TA.AperFunction,ComponentPad*%
%ADD17O,2.000000X1.905000*%
%TD*%
%TA.AperFunction,ComponentPad*%
%ADD18R,1.800000X1.800000*%
%TD*%
%TA.AperFunction,ComponentPad*%
%ADD19C,1.800000*%
%TD*%
%TA.AperFunction,ComponentPad*%
%ADD20R,2.400000X2.400000*%
%TD*%
%TA.AperFunction,ComponentPad*%
%ADD21O,2.400000X2.400000*%
%TD*%
%TA.AperFunction,Conductor*%
%ADD22C,0.300000*%
%TD*%
G04 APERTURE END LIST*
D10*
%TO.P,C2,1*%
%TO.N,Net-(U1-OUT)*%
X140500000Y-65500000D03*
%TO.P,C2,2*%
%TO.N,Net-(D1-A)*%
X145500000Y-65500000D03*
%TD*%
D11*
%TO.P,J1,1,Pin_1*%
%TO.N,Net-(D1-K)*%
X114120000Y-58500000D03*
D12*
%TO.P,J1,2,Pin_2*%
%TO.N,Net-(D2-A)*%
X118000000Y-58500000D03*
%TD*%
D13*
%TO.P,C1,1*%
%TO.N,Net-(D2-K)*%
X149000000Y-65000000D03*
D10*
%TO.P,C1,2*%
%TO.N,Net-(D1-A)*%
X151500000Y-65000000D03*
%TD*%
D14*
%TO.P,R1,1*%
%TO.N,Net-(U1-OUT)*%
X148780000Y-60500000D03*
D15*
%TO.P,R1,2*%
%TO.N,Net-(D5-A)*%
X151320000Y-60500000D03*
%TD*%
D16*
%TO.P,U1,1,IN*%
%TO.N,Net-(D2-K)*%
X154270000Y-62540000D03*
D17*
%TO.P,U1,2,GND*%
%TO.N,Net-(D1-A)*%
X154270000Y-60000000D03*
%TO.P,U1,3,OUT*%
%TO.N,Net-(U1-OUT)*%
X154270000Y-57460000D03*
%TD*%
D18*
%TO.P,D5,1,K*%
%TO.N,Net-(D1-A)*%
X148960000Y-57000000D03*
D19*
%TO.P,D5,2,A*%
%TO.N,Net-(D5-A)*%
X151500000Y-57000000D03*
%TD*%
D20*
%TO.P,D4,1,K*%
%TO.N,Net-(D2-A)*%
X135920000Y-61500000D03*
D21*
%TO.P,D4,2,A*%
%TO.N,Net-(D1-A)*%
X146080000Y-61500000D03*
%TD*%
D20*
%TO.P,D1,1,K*%
%TO.N,Net-(D1-K)*%
X135840000Y-57000000D03*
D21*
%TO.P,D1,2,A*%
%TO.N,Net-(D1-A)*%
X146000000Y-57000000D03*
%TD*%
D20*
%TO.P,D2,1,K*%
%TO.N,Net-(D2-K)*%
X122340000Y-61500000D03*
D21*
%TO.P,D2,2,A*%
%TO.N,Net-(D2-A)*%
X132500000Y-61500000D03*
%TD*%
D20*
%TO.P,D3,1,K*%
%TO.N,Net-(D2-K)*%
X122340000Y-57000000D03*
D21*
%TO.P,D3,2,A*%
%TO.N,Net-(D1-K)*%
X132500000Y-57000000D03*
%TD*%
D22*
%TO.N,Net-(D1-A)*%
X146000000Y-61420000D02*
X146080000Y-61500000D01*
X154270000Y-59349513D02*
X155620000Y-57999513D01*
X149850000Y-66650000D02*
X151500000Y-65000000D01*
X155620000Y-61237500D02*
X154382500Y-60000000D01*
X154462500Y-65000000D02*
X155620000Y-63842500D01*
X154270000Y-60000000D02*
X154270000Y-59349513D01*
X155620000Y-63842500D02*
X155620000Y-61237500D01*
X154382500Y-60000000D02*
X154270000Y-60000000D01*
X151500000Y-65000000D02*
X154462500Y-65000000D01*
X145500000Y-65500000D02*
X146650000Y-66650000D01*
X150210000Y-55750000D02*
X148960000Y-57000000D01*
X155620000Y-57999513D02*
X155620000Y-56920487D01*
X148960000Y-57000000D02*
X146000000Y-57000000D01*
X155620000Y-56920487D02*
X154449513Y-55750000D01*
X154449513Y-55750000D02*
X150210000Y-55750000D01*
X146000000Y-57000000D02*
X146000000Y-61420000D01*
X146650000Y-66650000D02*
X149850000Y-66650000D01*
%TO.N,Net-(D2-K)*%
X151460000Y-62540000D02*
X149000000Y-65000000D01*
X137020000Y-59500000D02*
X124340000Y-59500000D01*
X124340000Y-59500000D02*
X122340000Y-61500000D01*
X140976346Y-66650000D02*
X138790000Y-66650000D01*
X138790000Y-66650000D02*
X138790000Y-61270000D01*
X149000000Y-65000000D02*
X148350000Y-64350000D01*
X122340000Y-61500000D02*
X122340000Y-57000000D01*
X143276346Y-64350000D02*
X140976346Y-66650000D01*
X148350000Y-64350000D02*
X143276346Y-64350000D01*
X138790000Y-61270000D02*
X137020000Y-59500000D01*
X154270000Y-62540000D02*
X151460000Y-62540000D01*
%TO.N,Net-(U1-OUT)*%
X148780000Y-60992032D02*
X148780000Y-60500000D01*
X142950000Y-63050000D02*
X146722032Y-63050000D01*
X148780000Y-60500000D02*
X149830000Y-61550000D01*
X149830000Y-61550000D02*
X151754925Y-61550000D01*
X140500000Y-65500000D02*
X142950000Y-63050000D01*
X146722032Y-63050000D02*
X148780000Y-60992032D01*
X152500000Y-59230000D02*
X154270000Y-57460000D01*
X152500000Y-60804925D02*
X152500000Y-59230000D01*
X151754925Y-61550000D02*
X152500000Y-60804925D01*
%TO.N,Net-(D1-K)*%
X114120000Y-58500000D02*
X117170000Y-55450000D01*
X132500000Y-57000000D02*
X135840000Y-57000000D01*
X130950000Y-55450000D02*
X132500000Y-57000000D01*
X117170000Y-55450000D02*
X130950000Y-55450000D01*
%TO.N,Net-(D2-A)*%
X132500000Y-61500000D02*
X135920000Y-61500000D01*
X118000000Y-58500000D02*
X118000000Y-60621320D01*
X130950000Y-63050000D02*
X132500000Y-61500000D01*
X118000000Y-60621320D02*
X120428680Y-63050000D01*
X120428680Y-63050000D02*
X130950000Y-63050000D01*
%TO.N,Net-(D5-A)*%
X151320000Y-60500000D02*
X151320000Y-57180000D01*
X151320000Y-57180000D02*
X151500000Y-57000000D01*
%TD*%
%TA.AperFunction,NonConductor*%
G36*
X175442539Y-53020185D02*
G01*
X175488294Y-53072989D01*
X175499500Y-53124500D01*
X175499500Y-68875500D01*
X175479815Y-68942539D01*
X175427011Y-68988294D01*
X175375500Y-68999500D01*
X111624500Y-68999500D01*
X111557461Y-68979815D01*
X111511706Y-68927011D01*
X111500500Y-68875500D01*
X111500500Y-56952135D01*
X112119500Y-56952135D01*
X112119500Y-60047870D01*
X112119501Y-60047876D01*
X112125908Y-60107483D01*
X112176202Y-60242328D01*
X112176206Y-60242335D01*
X112262452Y-60357544D01*
X112262455Y-60357547D01*
X112377664Y-60443793D01*
X112377671Y-60443797D01*
X112512517Y-60494091D01*
X112512516Y-60494091D01*
X112519444Y-60494835D01*
X112572127Y-60500500D01*
X115667872Y-60500499D01*
X115727483Y-60494091D01*
X115862331Y-60443796D01*
X115977546Y-60357546D01*
X116063796Y-60242331D01*
X116114091Y-60107483D01*
X116120500Y-60047873D01*
X116120499Y-59700023D01*
X116140183Y-59632987D01*
X116192987Y-59587232D01*
X116262146Y-59577288D01*
X116325701Y-59606313D01*
X116343766Y-59625716D01*
X116484254Y-59813387D01*
X116484270Y-59813405D01*
X116686594Y-60015729D01*
X116686612Y-60015745D01*
X116915682Y-60187224D01*
X116915690Y-60187229D01*
X117166833Y-60324364D01*
X117166836Y-60324366D01*
X117178660Y-60328776D01*
X117268835Y-60362409D01*
X117324767Y-60404279D01*
X117349184Y-60469743D01*
X117349500Y-60478590D01*
X117349500Y-60685391D01*
X117373913Y-60808117D01*
X117373914Y-60808133D01*
X117373916Y-60808133D01*
X117374498Y-60811062D01*
X117411131Y-60899500D01*
X117423535Y-60929447D01*
X117484337Y-61020445D01*
X117494726Y-61035993D01*
X117494727Y-61035994D01*
X119923404Y-63464669D01*
X119999107Y-63540372D01*
X120014012Y-63555277D01*
X120120546Y-63626461D01*
X120120552Y-63626464D01*
X120120553Y-63626465D01*
X120238936Y-63675501D01*
X120238940Y-63675501D01*
X120238941Y-63675502D01*
X120364608Y-63700500D01*
X120364611Y-63700500D01*
X131014071Y-63700500D01*
X131098615Y-63683682D01*
X131139744Y-63675501D01*
X131258127Y-63626465D01*
X131364669Y-63555277D01*
X131790202Y-63129742D01*
X131851521Y-63096260D01*
X131914426Y-63098934D01*
X132120542Y-63162513D01*
X132372565Y-63200500D01*
X132627435Y-63200500D01*
X132879458Y-63162513D01*
X133123004Y-63087389D01*
X133352634Y-62976805D01*
X133563217Y-62833232D01*
X133750050Y-62659877D01*
X133908959Y-62460612D01*
X133988114Y-62323509D01*
X134038681Y-62275295D01*
X134107288Y-62262071D01*
X134172152Y-62288039D01*
X134212681Y-62344953D01*
X134219501Y-62385510D01*
X134219501Y-62747876D01*
X134225908Y-62807483D01*
X134276202Y-62942328D01*
X134276206Y-62942335D01*
X134362452Y-63057544D01*
X134362455Y-63057547D01*
X134477664Y-63143793D01*
X134477671Y-63143797D01*
X134612517Y-63194091D01*
X134612516Y-63194091D01*
X134619444Y-63194835D01*
X134672127Y-63200500D01*
X137167872Y-63200499D01*
X137227483Y-63194091D01*
X137362331Y-63143796D01*
X137477546Y-63057546D01*
X137563796Y-62942331D01*
X137614091Y-62807483D01*
X137620500Y-62747873D01*
X137620499Y-61319806D01*
X137640184Y-61252768D01*
X137692987Y-61207013D01*
X137762146Y-61197069D01*
X137825702Y-61226094D01*
X137832180Y-61232126D01*
X138103181Y-61503127D01*
X138136666Y-61564450D01*
X138139500Y-61590808D01*
X138139500Y-66714069D01*
X138139500Y-66714071D01*
X138139499Y-66714071D01*
X138164497Y-66839738D01*
X138164499Y-66839744D01*
X138213533Y-66958124D01*
X138213538Y-66958133D01*
X138284723Y-67064668D01*
X138284726Y-67064672D01*
X138375327Y-67155273D01*
X138375331Y-67155276D01*
X138481866Y-67226461D01*
X138481872Y-67226464D01*
X138481873Y-67226465D01*
X138600256Y-67275501D01*
X138600260Y-67275501D01*
X138600261Y-67275502D01*
X138725928Y-67300500D01*
X138725931Y-67300500D01*
X141040417Y-67300500D01*
X141124961Y-67283682D01*
X141166090Y-67275501D01*
X141284473Y-67226465D01*
X141391015Y-67155277D01*
X143509472Y-65036818D01*
X143570795Y-65003334D01*
X143597153Y-65000500D01*
X144125863Y-65000500D01*
X144192902Y-65020185D01*
X144238657Y-65072989D01*
X144248601Y-65142147D01*
X144245638Y-65156593D01*
X144214366Y-65273302D01*
X144214364Y-65273313D01*
X144194532Y-65499998D01*
X144194532Y-65500001D01*
X144214364Y-65726686D01*
X144214366Y-65726697D01*
X144273258Y-65946488D01*
X144273261Y-65946497D01*
X144369431Y-66152732D01*
X144369432Y-66152734D01*
X144499954Y-66339141D01*
X144660858Y-66500045D01*
X144660861Y-66500047D01*
X144847266Y-66630568D01*
X145053504Y-66726739D01*
X145273308Y-66785635D01*
X145435230Y-66799801D01*
X145499998Y-66805468D01*
X145500000Y-66805468D01*
X145500002Y-66805468D01*
X145531421Y-66802719D01*
X145726692Y-66785635D01*
X145767162Y-66774791D01*
X145837012Y-66776452D01*
X145886938Y-66806884D01*
X146235325Y-67155272D01*
X146235330Y-67155276D01*
X146235331Y-67155277D01*
X146341874Y-67226466D01*
X146411221Y-67255189D01*
X146460256Y-67275501D01*
X146460259Y-67275501D01*
X146460260Y-67275502D01*
X146585928Y-67300500D01*
X146585931Y-67300500D01*
X149914071Y-67300500D01*
X149998615Y-67283682D01*
X150039744Y-67275501D01*
X150158127Y-67226465D01*
X150264669Y-67155277D01*
X151113062Y-66306882D01*
X151174383Y-66273399D01*
X151232834Y-66274790D01*
X151273308Y-66285635D01*
X151435230Y-66299801D01*
X151499998Y-66305468D01*
X151500000Y-66305468D01*
X151500002Y-66305468D01*
X151556673Y-66300509D01*
X151726692Y-66285635D01*
X151946496Y-66226739D01*
X152152734Y-66130568D01*
X152339139Y-66000047D01*
X152500047Y-65839139D01*
X152595108Y-65703377D01*
X152649685Y-65659752D01*
X152696683Y-65650500D01*
X154526571Y-65650500D01*
X154611115Y-65633682D01*
X154652244Y-65625501D01*
X154770627Y-65576465D01*
X154789179Y-65564069D01*
X154877169Y-65505277D01*
X156125276Y-64257169D01*
X156196465Y-64150627D01*
X156245501Y-64032244D01*
X156253307Y-63993000D01*
X156261903Y-63949784D01*
X156270500Y-63906570D01*
X156270500Y-61173428D01*
X156245502Y-61047761D01*
X156245501Y-61047760D01*
X156245501Y-61047756D01*
X156196465Y-60929373D01*
X156167950Y-60886697D01*
X156125276Y-60822830D01*
X156125274Y-60822827D01*
X156125271Y-60822824D01*
X155765883Y-60463437D01*
X155732398Y-60402114D01*
X155735249Y-60345383D01*
X155733584Y-60344984D01*
X155734717Y-60340259D01*
X155734722Y-60340245D01*
X155770500Y-60114354D01*
X155770500Y-59999992D01*
X168674671Y-59999992D01*
X168674671Y-60000007D01*
X168693964Y-60294363D01*
X168693965Y-60294373D01*
X168693966Y-60294380D01*
X168728847Y-60469743D01*
X168751518Y-60583716D01*
X168751521Y-60583730D01*
X168846349Y-60863080D01*
X168976825Y-61127660D01*
X168976829Y-61127667D01*
X169140725Y-61372955D01*
X169335241Y-61594758D01*
X169517001Y-61754157D01*
X169557043Y-61789273D01*
X169802335Y-61953172D01*
X170066923Y-62083652D01*
X170346278Y-62178481D01*
X170635620Y-62236034D01*
X170663888Y-62237886D01*
X170929993Y-62255329D01*
X170930000Y-62255329D01*
X170930007Y-62255329D01*
X171165675Y-62239881D01*
X171224380Y-62236034D01*
X171513722Y-62178481D01*
X171793077Y-62083652D01*
X172057665Y-61953172D01*
X172302957Y-61789273D01*
X172524758Y-61594758D01*
X172719273Y-61372957D01*
X172883172Y-61127665D01*
X173013652Y-60863077D01*
X173108481Y-60583722D01*
X173166034Y-60294380D01*
X173173057Y-60187226D01*
X173185329Y-60000007D01*
X173185329Y-59999992D01*
X173166035Y-59705636D01*
X173166034Y-59705620D01*
X173108481Y-59416278D01*
X173013652Y-59136923D01*
X172883172Y-58872336D01*
X172869305Y-58851583D01*
X172816789Y-58772987D01*
X172719273Y-58627043D01*
X172672884Y-58574147D01*
X172524758Y-58405241D01*
X172302955Y-58210725D01*
X172057667Y-58046829D01*
X172057660Y-58046825D01*
X171793080Y-57916349D01*
X171513730Y-57821521D01*
X171513724Y-57821519D01*
X171513722Y-57821519D01*
X171224380Y-57763966D01*
X171224373Y-57763965D01*
X171224363Y-57763964D01*
X170930007Y-57744671D01*
X170929993Y-57744671D01*
X170635636Y-57763964D01*
X170635624Y-57763965D01*
X170635620Y-57763966D01*
X170635612Y-57763967D01*
X170635609Y-57763968D01*
X170346283Y-57821518D01*
X170346269Y-57821521D01*
X170066919Y-57916349D01*
X169802334Y-58046828D01*
X169557041Y-58210728D01*
X169335241Y-58405241D01*
X169140728Y-58627041D01*
X168976828Y-58872334D01*
X168846349Y-59136919D01*
X168751521Y-59416269D01*
X168751518Y-59416283D01*
X168693968Y-59705609D01*
X168693964Y-59705636D01*
X168674671Y-59999992D01*
X155770500Y-59999992D01*
X155770500Y-59885646D01*
X155734722Y-59659755D01*
X155734721Y-59659751D01*
X155734721Y-59659750D01*
X155664049Y-59442244D01*
X155608471Y-59333166D01*
X155560217Y-59238462D01*
X155513383Y-59174000D01*
X155489904Y-59108197D01*
X155505729Y-59040143D01*
X155526017Y-59013440D01*
X156125276Y-58414183D01*
X156179366Y-58333231D01*
X156196464Y-58307642D01*
X156196604Y-58307304D01*
X156245501Y-58189257D01*
X156270500Y-58063582D01*
X156270500Y-56856418D01*
X156270500Y-56856415D01*
X156245502Y-56730748D01*
X156245501Y-56730747D01*
X156245501Y-56730743D01*
X156222297Y-56674724D01*
X156202897Y-56627888D01*
X156196469Y-56612368D01*
X156196468Y-56612367D01*
X156196466Y-56612361D01*
X156165866Y-56566565D01*
X156125278Y-56505819D01*
X156125272Y-56505812D01*
X154864186Y-55244726D01*
X154864182Y-55244723D01*
X154757640Y-55173535D01*
X154639257Y-55124499D01*
X154639251Y-55124497D01*
X154513584Y-55099500D01*
X154513582Y-55099500D01*
X150145931Y-55099500D01*
X150145929Y-55099500D01*
X150020261Y-55124497D01*
X150020255Y-55124499D01*
X149901874Y-55173534D01*
X149795329Y-55244724D01*
X149476872Y-55563181D01*
X149415549Y-55596666D01*
X149389191Y-55599500D01*
X148012129Y-55599500D01*
X148012123Y-55599501D01*
X147952516Y-55605908D01*
X147817671Y-55656202D01*
X147817664Y-55656206D01*
X147702455Y-55742452D01*
X147702452Y-55742455D01*
X147616206Y-55857664D01*
X147616203Y-55857669D01*
X147580534Y-55953303D01*
X147538662Y-56009236D01*
X147473198Y-56033653D01*
X147404925Y-56018801D01*
X147367407Y-55987283D01*
X147250050Y-55840123D01*
X147063217Y-55666768D01*
X146852634Y-55523195D01*
X146852630Y-55523193D01*
X146852627Y-55523191D01*
X146852626Y-55523190D01*
X146623006Y-55412612D01*
X146623008Y-55412612D01*
X146379466Y-55337489D01*
X146379462Y-55337488D01*
X146379458Y-55337487D01*
X146258231Y-55319214D01*
X146127440Y-55299500D01*
X146127435Y-55299500D01*
X145872565Y-55299500D01*
X145872559Y-55299500D01*
X145715609Y-55323157D01*
X145620542Y-55337487D01*
X145620539Y-55337488D01*
X145620533Y-55337489D01*
X145376992Y-55412612D01*
X145147373Y-55523190D01*
X145147372Y-55523191D01*
X144936782Y-55666768D01*
X144749952Y-55840121D01*
X144749950Y-55840123D01*
X144591041Y-56039388D01*
X144463608Y-56260109D01*
X144370492Y-56497362D01*
X144370490Y-56497369D01*
X144313777Y-56745845D01*
X144294732Y-56999995D01*
X144294732Y-57000004D01*
X144313777Y-57254154D01*
X144350645Y-57415685D01*
X144370492Y-57502637D01*
X144463607Y-57739888D01*
X144591041Y-57960612D01*
X144749950Y-58159877D01*
X144936783Y-58333232D01*
X145147366Y-58476805D01*
X145147371Y-58476807D01*
X145147372Y-58476808D01*
X145147373Y-58476809D01*
X145195533Y-58500001D01*
X145278989Y-58540191D01*
X145279301Y-58540341D01*
X145331161Y-58587163D01*
X145349500Y-58652061D01*
X145349500Y-59886463D01*
X145329815Y-59953502D01*
X145279303Y-59998182D01*
X145227375Y-60023189D01*
X145227372Y-60023191D01*
X145016782Y-60166768D01*
X144829952Y-60340121D01*
X144829950Y-60340123D01*
X144671041Y-60539388D01*
X144543608Y-60760109D01*
X144450492Y-60997362D01*
X144450490Y-60997369D01*
X144393777Y-61245845D01*
X144374732Y-61499995D01*
X144374732Y-61500004D01*
X144393777Y-61754154D01*
X144393778Y-61754157D01*
X144450492Y-62002637D01*
X144535874Y-62220185D01*
X144539804Y-62230197D01*
X144545973Y-62299794D01*
X144513535Y-62361678D01*
X144452791Y-62396201D01*
X144424376Y-62399500D01*
X142885929Y-62399500D01*
X142760261Y-62424497D01*
X142760255Y-62424499D01*
X142641875Y-62473533D01*
X142641866Y-62473538D01*
X142535331Y-62544723D01*
X142535327Y-62544726D01*
X140886937Y-64193115D01*
X140825614Y-64226600D01*
X140767163Y-64225209D01*
X140726697Y-64214366D01*
X140726693Y-64214365D01*
X140726692Y-64214365D01*
X140726691Y-64214364D01*
X140726686Y-64214364D01*
X140500002Y-64194532D01*
X140499998Y-64194532D01*
X140273313Y-64214364D01*
X140273302Y-64214366D01*
X140053511Y-64273258D01*
X140053502Y-64273261D01*
X139847267Y-64369431D01*
X139847265Y-64369432D01*
X139660858Y-64499954D01*
X139652181Y-64508632D01*
X139590858Y-64542117D01*
X139521166Y-64537133D01*
X139465233Y-64495261D01*
X139440816Y-64429797D01*
X139440500Y-64420951D01*
X139440500Y-61205928D01*
X139415502Y-61080261D01*
X139415501Y-61080260D01*
X139415501Y-61080256D01*
X139366465Y-60961873D01*
X139344799Y-60929447D01*
X139324789Y-60899500D01*
X139295275Y-60855328D01*
X137434673Y-58994726D01*
X137328125Y-58923533D01*
X137242235Y-58887957D01*
X137187832Y-58844116D01*
X137165767Y-58777822D01*
X137183046Y-58710122D01*
X137234184Y-58662512D01*
X137246356Y-58657214D01*
X137282326Y-58643798D01*
X137282326Y-58643797D01*
X137282331Y-58643796D01*
X137397546Y-58557546D01*
X137483796Y-58442331D01*
X137534091Y-58307483D01*
X137540500Y-58247873D01*
X137540499Y-55752128D01*
X137534091Y-55692517D01*
X137524487Y-55666768D01*
X137483797Y-55557671D01*
X137483793Y-55557664D01*
X137397547Y-55442455D01*
X137397544Y-55442452D01*
X137282335Y-55356206D01*
X137282328Y-55356202D01*
X137147482Y-55305908D01*
X137147483Y-55305908D01*
X137087883Y-55299501D01*
X137087881Y-55299500D01*
X137087873Y-55299500D01*
X137087864Y-55299500D01*
X134592129Y-55299500D01*
X134592123Y-55299501D01*
X134532516Y-55305908D01*
X134397671Y-55356202D01*
X134397664Y-55356206D01*
X134282455Y-55442452D01*
X134282452Y-55442455D01*
X134196206Y-55557664D01*
X134196202Y-55557671D01*
X134145908Y-55692517D01*
X134140540Y-55742452D01*
X134139501Y-55752123D01*
X134139500Y-55752135D01*
X134139500Y-55975923D01*
X134119815Y-56042962D01*
X134067011Y-56088717D01*
X133997853Y-56098661D01*
X133934297Y-56069636D01*
X133912155Y-56042820D01*
X133911571Y-56043219D01*
X133908961Y-56039391D01*
X133892541Y-56018801D01*
X133750050Y-55840123D01*
X133563217Y-55666768D01*
X133352634Y-55523195D01*
X133352630Y-55523193D01*
X133352627Y-55523191D01*
X133352626Y-55523190D01*
X133123006Y-55412612D01*
X133123008Y-55412612D01*
X132879466Y-55337489D01*
X132879462Y-55337488D01*
X132879458Y-55337487D01*
X132758231Y-55319214D01*
X132627440Y-55299500D01*
X132627435Y-55299500D01*
X132372565Y-55299500D01*
X132372559Y-55299500D01*
X132215609Y-55323157D01*
X132120542Y-55337487D01*
X132120539Y-55337488D01*
X132120529Y-55337490D01*
X131914429Y-55401063D01*
X131844566Y-55402013D01*
X131790199Y-55370253D01*
X131364674Y-54944727D01*
X131364673Y-54944726D01*
X131364669Y-54944723D01*
X131258127Y-54873535D01*
X131139744Y-54824499D01*
X131139738Y-54824497D01*
X131014071Y-54799500D01*
X131014069Y-54799500D01*
X117105931Y-54799500D01*
X117105929Y-54799500D01*
X116980261Y-54824497D01*
X116980255Y-54824499D01*
X116861870Y-54873535D01*
X116755331Y-54944722D01*
X116755324Y-54944728D01*
X115236871Y-56463181D01*
X115175548Y-56496666D01*
X115149190Y-56499500D01*
X112572129Y-56499500D01*
X112572123Y-56499501D01*
X112512516Y-56505908D01*
X112377671Y-56556202D01*
X112377664Y-56556206D01*
X112262455Y-56642452D01*
X112262452Y-56642455D01*
X112176206Y-56757664D01*
X112176202Y-56757671D01*
X112125908Y-56892517D01*
X112119501Y-56952116D01*
X112119500Y-56952135D01*
X111500500Y-56952135D01*
X111500500Y-53124500D01*
X111520185Y-53057461D01*
X111572989Y-53011706D01*
X111624500Y-53000500D01*
X175375500Y-53000500D01*
X175442539Y-53020185D01*
G37*
%TD.AperFunction*%
%TA.AperFunction,NonConductor*%
G36*
X152472438Y-58109693D02*
G01*
X152522763Y-58158161D01*
X152538895Y-58226143D01*
X152515713Y-58292055D01*
X152502748Y-58307304D01*
X152182181Y-58627872D01*
X152120858Y-58661357D01*
X152051167Y-58656373D01*
X151995233Y-58614502D01*
X151970816Y-58549037D01*
X151970500Y-58540191D01*
X151970500Y-58407741D01*
X151990185Y-58340702D01*
X152042989Y-58294947D01*
X152054235Y-58290460D01*
X152064503Y-58286936D01*
X152268626Y-58176470D01*
X152338905Y-58121769D01*
X152403898Y-58096127D01*
X152472438Y-58109693D01*
G37*
%TD.AperFunction*%
%TA.AperFunction,NonConductor*%
G36*
X134092149Y-57926601D02*
G01*
X134132680Y-57983514D01*
X134139501Y-58024075D01*
X134139501Y-58247876D01*
X134145908Y-58307483D01*
X134196202Y-58442328D01*
X134196206Y-58442335D01*
X134282452Y-58557544D01*
X134282455Y-58557547D01*
X134374208Y-58626234D01*
X134416079Y-58682168D01*
X134421063Y-58751859D01*
X134387577Y-58813182D01*
X134326254Y-58846666D01*
X134299897Y-58849500D01*
X133095946Y-58849500D01*
X133028907Y-58829815D01*
X132983152Y-58777011D01*
X132973208Y-58707853D01*
X133002233Y-58644297D01*
X133059394Y-58607009D01*
X133123004Y-58587389D01*
X133352634Y-58476805D01*
X133563217Y-58333232D01*
X133750050Y-58159877D01*
X133908959Y-57960612D01*
X133908963Y-57960605D01*
X133911571Y-57956781D01*
X133912793Y-57957614D01*
X133958677Y-57913862D01*
X134027283Y-57900636D01*
X134092149Y-57926601D01*
G37*
%TD.AperFunction*%
%TA.AperFunction,NonConductor*%
G36*
X130696231Y-56120185D02*
G01*
X130716873Y-56136819D01*
X130871406Y-56291352D01*
X130904891Y-56352675D01*
X130899907Y-56422367D01*
X130899185Y-56424252D01*
X130870492Y-56497363D01*
X130870490Y-56497369D01*
X130870489Y-56497374D01*
X130813777Y-56745845D01*
X130794732Y-56999995D01*
X130794732Y-57000004D01*
X130813777Y-57254154D01*
X130850645Y-57415685D01*
X130870492Y-57502637D01*
X130963607Y-57739888D01*
X131091041Y-57960612D01*
X131249950Y-58159877D01*
X131436783Y-58333232D01*
X131647366Y-58476805D01*
X131647371Y-58476807D01*
X131647372Y-58476808D01*
X131647373Y-58476809D01*
X131769328Y-58535538D01*
X131876992Y-58587387D01*
X131876993Y-58587387D01*
X131876996Y-58587389D01*
X131940605Y-58607009D01*
X131998863Y-58645579D01*
X132027021Y-58709524D01*
X132016137Y-58778541D01*
X131969668Y-58830718D01*
X131904054Y-58849500D01*
X124275929Y-58849500D01*
X124161140Y-58872334D01*
X124161130Y-58872336D01*
X124150256Y-58874499D01*
X124150255Y-58874499D01*
X124031875Y-58923533D01*
X124031866Y-58923538D01*
X123925331Y-58994723D01*
X123925327Y-58994726D01*
X123202181Y-59717873D01*
X123140858Y-59751358D01*
X123071166Y-59746374D01*
X123015233Y-59704502D01*
X122990816Y-59639038D01*
X122990500Y-59630192D01*
X122990500Y-58824499D01*
X123010185Y-58757460D01*
X123062989Y-58711705D01*
X123114500Y-58700499D01*
X123587871Y-58700499D01*
X123587872Y-58700499D01*
X123647483Y-58694091D01*
X123782331Y-58643796D01*
X123897546Y-58557546D01*
X123983796Y-58442331D01*
X124034091Y-58307483D01*
X124040500Y-58247873D01*
X124040499Y-56224499D01*
X124060184Y-56157461D01*
X124112987Y-56111706D01*
X124164499Y-56100500D01*
X130629192Y-56100500D01*
X130696231Y-56120185D01*
G37*
%TD.AperFunction*%
%TA.AperFunction,NonConductor*%
G36*
X147554675Y-58005072D02*
G01*
X147580534Y-58046697D01*
X147616202Y-58142328D01*
X147616206Y-58142335D01*
X147702452Y-58257544D01*
X147702455Y-58257547D01*
X147817664Y-58343793D01*
X147817671Y-58343797D01*
X147952517Y-58394091D01*
X147952516Y-58394091D01*
X147959444Y-58394835D01*
X148012127Y-58400500D01*
X149907872Y-58400499D01*
X149967483Y-58394091D01*
X150102331Y-58343796D01*
X150217546Y-58257546D01*
X150303796Y-58142331D01*
X150321029Y-58096127D01*
X150332455Y-58065493D01*
X150374326Y-58009559D01*
X150439790Y-57985141D01*
X150508063Y-57999992D01*
X150539866Y-58024843D01*
X150547302Y-58032920D01*
X150548215Y-58033912D01*
X150548221Y-58033918D01*
X150621661Y-58091077D01*
X150662475Y-58147787D01*
X150669500Y-58188931D01*
X150669500Y-59421712D01*
X150649815Y-59488751D01*
X150610780Y-59527137D01*
X150593441Y-59537872D01*
X150593437Y-59537876D01*
X150429020Y-59687761D01*
X150294943Y-59865308D01*
X150294938Y-59865316D01*
X150195775Y-60064461D01*
X150195769Y-60064476D01*
X150169266Y-60157627D01*
X150131987Y-60216721D01*
X150068677Y-60246278D01*
X149999438Y-60236916D01*
X149946251Y-60191606D01*
X149930734Y-60157627D01*
X149904230Y-60064476D01*
X149904229Y-60064472D01*
X149904224Y-60064461D01*
X149805061Y-59865316D01*
X149805056Y-59865308D01*
X149670979Y-59687761D01*
X149506562Y-59537876D01*
X149506560Y-59537874D01*
X149317404Y-59420754D01*
X149317398Y-59420752D01*
X149109940Y-59340382D01*
X148891243Y-59299500D01*
X148668757Y-59299500D01*
X148450060Y-59340382D01*
X148318864Y-59391207D01*
X148242601Y-59420752D01*
X148242595Y-59420754D01*
X148053439Y-59537874D01*
X148053437Y-59537876D01*
X147889020Y-59687761D01*
X147754943Y-59865308D01*
X147754938Y-59865316D01*
X147655775Y-60064461D01*
X147655769Y-60064476D01*
X147594885Y-60278462D01*
X147594885Y-60278463D01*
X147590610Y-60324591D01*
X147564823Y-60389528D01*
X147508021Y-60430215D01*
X147438240Y-60433734D01*
X147377634Y-60398967D01*
X147370208Y-60390479D01*
X147330050Y-60340123D01*
X147143217Y-60166768D01*
X146932634Y-60023195D01*
X146932631Y-60023194D01*
X146932629Y-60023192D01*
X146720698Y-59921131D01*
X146668839Y-59874308D01*
X146650500Y-59809411D01*
X146650500Y-58652061D01*
X146670185Y-58585022D01*
X146720699Y-58540341D01*
X146721011Y-58540191D01*
X146852634Y-58476805D01*
X147063217Y-58333232D01*
X147250050Y-58159877D01*
X147367406Y-58012716D01*
X147424593Y-57972577D01*
X147494405Y-57969727D01*
X147554675Y-58005072D01*
G37*
%TD.AperFunction*%
%TA.AperFunction,NonConductor*%
G36*
X134162539Y-60170185D02*
G01*
X134208294Y-60222989D01*
X134219500Y-60274500D01*
X134219500Y-60614487D01*
X134199815Y-60681526D01*
X134147011Y-60727281D01*
X134077853Y-60737225D01*
X134014297Y-60708200D01*
X133988113Y-60676487D01*
X133952317Y-60614487D01*
X133908959Y-60539388D01*
X133759371Y-60351811D01*
X133732964Y-60287126D01*
X133745719Y-60218431D01*
X133793590Y-60167537D01*
X133856319Y-60150500D01*
X134095500Y-60150500D01*
X134162539Y-60170185D01*
G37*
%TD.AperFunction*%
%TA.AperFunction,NonConductor*%
G36*
X120582539Y-56120185D02*
G01*
X120628294Y-56172989D01*
X120639500Y-56224500D01*
X120639500Y-58247870D01*
X120639501Y-58247876D01*
X120645908Y-58307483D01*
X120696202Y-58442328D01*
X120696206Y-58442335D01*
X120782452Y-58557544D01*
X120782455Y-58557547D01*
X120897664Y-58643793D01*
X120897671Y-58643797D01*
X120942618Y-58660561D01*
X121032517Y-58694091D01*
X121092127Y-58700500D01*
X121565500Y-58700499D01*
X121632539Y-58720183D01*
X121678294Y-58772987D01*
X121689500Y-58824499D01*
X121689500Y-59675500D01*
X121669815Y-59742539D01*
X121617011Y-59788294D01*
X121565500Y-59799500D01*
X121092129Y-59799500D01*
X121092123Y-59799501D01*
X121032516Y-59805908D01*
X120897671Y-59856202D01*
X120897664Y-59856206D01*
X120782455Y-59942452D01*
X120782452Y-59942455D01*
X120696206Y-60057664D01*
X120696202Y-60057671D01*
X120645908Y-60192517D01*
X120639501Y-60252116D01*
X120639500Y-60252135D01*
X120639500Y-62041512D01*
X120619815Y-62108551D01*
X120567011Y-62154306D01*
X120497853Y-62164250D01*
X120434297Y-62135225D01*
X120427819Y-62129193D01*
X118814350Y-60515724D01*
X118780865Y-60454401D01*
X118785849Y-60384709D01*
X118827721Y-60328776D01*
X118842604Y-60319211D01*
X119018820Y-60222989D01*
X119084315Y-60187226D01*
X119313395Y-60015739D01*
X119515739Y-59813395D01*
X119687226Y-59584315D01*
X119824367Y-59333161D01*
X119924369Y-59065046D01*
X119985196Y-58785428D01*
X120005610Y-58500000D01*
X119985196Y-58214572D01*
X119976907Y-58176470D01*
X119924371Y-57934962D01*
X119924370Y-57934960D01*
X119924369Y-57934954D01*
X119824367Y-57666839D01*
X119687226Y-57415685D01*
X119566306Y-57254154D01*
X119515745Y-57186612D01*
X119515729Y-57186594D01*
X119313405Y-56984270D01*
X119313387Y-56984254D01*
X119084317Y-56812775D01*
X119084309Y-56812770D01*
X118833166Y-56675635D01*
X118833167Y-56675635D01*
X118663541Y-56612368D01*
X118565046Y-56575631D01*
X118565043Y-56575630D01*
X118565037Y-56575628D01*
X118285433Y-56514804D01*
X118000001Y-56494390D01*
X117999999Y-56494390D01*
X117714566Y-56514804D01*
X117434960Y-56575629D01*
X117434955Y-56575630D01*
X117434954Y-56575631D01*
X117351590Y-56606724D01*
X117218433Y-56656389D01*
X117148742Y-56661373D01*
X117087419Y-56627888D01*
X117053934Y-56566565D01*
X117058918Y-56496873D01*
X117087417Y-56452528D01*
X117403127Y-56136819D01*
X117464450Y-56103334D01*
X117490808Y-56100500D01*
X120515500Y-56100500D01*
X120582539Y-56120185D01*
G37*
%TD.AperFunction*%
%TA.AperFunction,NonConductor*%
G36*
X131210720Y-60170185D02*
G01*
X131256475Y-60222989D01*
X131266419Y-60292147D01*
X131240628Y-60351811D01*
X131091041Y-60539388D01*
X130963608Y-60760109D01*
X130870492Y-60997362D01*
X130870490Y-60997369D01*
X130813777Y-61245845D01*
X130794732Y-61499995D01*
X130794732Y-61500004D01*
X130813777Y-61754154D01*
X130813778Y-61754157D01*
X130870492Y-62002637D01*
X130870494Y-62002642D01*
X130899153Y-62075664D01*
X130905322Y-62145261D01*
X130872884Y-62207144D01*
X130871450Y-62208602D01*
X130716871Y-62363182D01*
X130655550Y-62396666D01*
X130629192Y-62399500D01*
X124164500Y-62399500D01*
X124097461Y-62379815D01*
X124051706Y-62327011D01*
X124040500Y-62275500D01*
X124040499Y-60770807D01*
X124060184Y-60703768D01*
X124076813Y-60683131D01*
X124573126Y-60186819D01*
X124634449Y-60153334D01*
X124660807Y-60150500D01*
X131143681Y-60150500D01*
X131210720Y-60170185D01*
G37*
%TD.AperFunction*%
%TA.AperFunction,NonConductor*%
G36*
X149069348Y-61725141D02*
G01*
X149113696Y-61753642D01*
X149415324Y-62055271D01*
X149415327Y-62055274D01*
X149520177Y-62125332D01*
X149520175Y-62125334D01*
X149520189Y-62125339D01*
X149521873Y-62126465D01*
X149640256Y-62175501D01*
X149640260Y-62175501D01*
X149640261Y-62175502D01*
X149765928Y-62200500D01*
X149765931Y-62200500D01*
X150580192Y-62200500D01*
X150647231Y-62220185D01*
X150692986Y-62272989D01*
X150702930Y-62342147D01*
X150673905Y-62405703D01*
X150667874Y-62412178D01*
X150022509Y-63057544D01*
X149416872Y-63663181D01*
X149355549Y-63696666D01*
X149329191Y-63699500D01*
X147291841Y-63699500D01*
X147224802Y-63679815D01*
X147179047Y-63627011D01*
X147169103Y-63557853D01*
X147198128Y-63494297D01*
X147204160Y-63487819D01*
X148636706Y-62055271D01*
X148938336Y-61753640D01*
X148999657Y-61720157D01*
X149069348Y-61725141D01*
G37*
%TD.AperFunction*%
%TA.AperFunction,NonConductor*%
G36*
X152712540Y-63210185D02*
G01*
X152758295Y-63262989D01*
X152769501Y-63314500D01*
X152769501Y-63540376D01*
X152775908Y-63599983D01*
X152826202Y-63734828D01*
X152826206Y-63734835D01*
X152912452Y-63850044D01*
X152912455Y-63850047D01*
X153027664Y-63936293D01*
X153027671Y-63936297D01*
X153162517Y-63986591D01*
X153162516Y-63986591D01*
X153169444Y-63987335D01*
X153222127Y-63993000D01*
X154250192Y-63992999D01*
X154317231Y-64012683D01*
X154362986Y-64065487D01*
X154372930Y-64134646D01*
X154343905Y-64198202D01*
X154337874Y-64204680D01*
X154229371Y-64313182D01*
X154168051Y-64346666D01*
X154141692Y-64349500D01*
X152696683Y-64349500D01*
X152629644Y-64329815D01*
X152595108Y-64296623D01*
X152500045Y-64160858D01*
X152339141Y-63999954D01*
X152152734Y-63869432D01*
X152152732Y-63869431D01*
X151946497Y-63773261D01*
X151946488Y-63773258D01*
X151726697Y-63714366D01*
X151726687Y-63714364D01*
X151512409Y-63695617D01*
X151447341Y-63670164D01*
X151406362Y-63613573D01*
X151402484Y-63543811D01*
X151435532Y-63484412D01*
X151693129Y-63226816D01*
X151754450Y-63193334D01*
X151780808Y-63190500D01*
X152645501Y-63190500D01*
X152712540Y-63210185D01*
G37*
%TD.AperFunction*%
%TA.AperFunction,NonConductor*%
G36*
X147642540Y-65020185D02*
G01*
X147688295Y-65072989D01*
X147699501Y-65124500D01*
X147699501Y-65847878D01*
X147701046Y-65862248D01*
X147688639Y-65931007D01*
X147641027Y-65982143D01*
X147577756Y-65999500D01*
X146970808Y-65999500D01*
X146903769Y-65979815D01*
X146883127Y-65963181D01*
X146806884Y-65886938D01*
X146773399Y-65825615D01*
X146774791Y-65767162D01*
X146785633Y-65726699D01*
X146785632Y-65726699D01*
X146785635Y-65726692D01*
X146805468Y-65500000D01*
X146785635Y-65273308D01*
X146772308Y-65223573D01*
X146754362Y-65156593D01*
X146756025Y-65086743D01*
X146795188Y-65028881D01*
X146859417Y-65001377D01*
X146874137Y-65000500D01*
X147575501Y-65000500D01*
X147642540Y-65020185D01*
G37*
%TD.AperFunction*%
M02*
