%TF.GenerationSoftware,KiCad,Pcbnew,8.0.6*%
%TF.CreationDate,2024-11-04T20:56:58+05:30*%
%TF.ProjectId,power_supply_kicad,706f7765-725f-4737-9570-706c795f6b69,rev?*%
%TF.SameCoordinates,Original*%
%TF.FileFunction,Copper,L2,Bot*%
%TF.FilePolarity,Positive*%
%FSLAX46Y46*%
G04 Gerber Fmt 4.6, Leading zero omitted, Abs format (unit mm)*
G04 Created by KiCad (PCBNEW 8.0.6) date 2024-11-04 20:56:58*
%MOMM*%
%LPD*%
G01*
G04 APERTURE LIST*
%TA.AperFunction,ComponentPad*%
%ADD10C,1.600000*%
%TD*%
%TA.AperFunction,ComponentPad*%
%ADD11R,3.000000X3.000000*%
%TD*%
%TA.AperFunction,ComponentPad*%
%ADD12C,3.000000*%
%TD*%
%TA.AperFunction,ComponentPad*%
%ADD13R,1.600000X1.600000*%
%TD*%
%TA.AperFunction,ComponentPad*%
%ADD14C,1.400000*%
%TD*%
%TA.AperFunction,ComponentPad*%
%ADD15O,1.400000X1.400000*%
%TD*%
%TA.AperFunction,ComponentPad*%
%ADD16R,2.000000X1.905000*%
%TD*%
%TA.AperFunction,ComponentPad*%
%ADD17O,2.000000X1.905000*%
%TD*%
%TA.AperFunction,ComponentPad*%
%ADD18R,1.800000X1.800000*%
%TD*%
%TA.AperFunction,ComponentPad*%
%ADD19C,1.800000*%
%TD*%
%TA.AperFunction,ComponentPad*%
%ADD20R,2.400000X2.400000*%
%TD*%
%TA.AperFunction,ComponentPad*%
%ADD21O,2.400000X2.400000*%
%TD*%
G04 APERTURE END LIST*
D10*
%TO.P,C2,1*%
%TO.N,Net-(U1-OUT)*%
X140500000Y-65500000D03*
%TO.P,C2,2*%
%TO.N,Net-(D1-A)*%
X145500000Y-65500000D03*
%TD*%
D11*
%TO.P,J1,1,Pin_1*%
%TO.N,Net-(D1-K)*%
X114120000Y-58500000D03*
D12*
%TO.P,J1,2,Pin_2*%
%TO.N,Net-(D2-A)*%
X118000000Y-58500000D03*
%TD*%
D13*
%TO.P,C1,1*%
%TO.N,Net-(D2-K)*%
X149000000Y-65000000D03*
D10*
%TO.P,C1,2*%
%TO.N,Net-(D1-A)*%
X151500000Y-65000000D03*
%TD*%
D14*
%TO.P,R1,1*%
%TO.N,Net-(U1-OUT)*%
X148780000Y-60500000D03*
D15*
%TO.P,R1,2*%
%TO.N,Net-(D5-A)*%
X151320000Y-60500000D03*
%TD*%
D16*
%TO.P,U1,1,IN*%
%TO.N,Net-(D2-K)*%
X154270000Y-62540000D03*
D17*
%TO.P,U1,2,GND*%
%TO.N,Net-(D1-A)*%
X154270000Y-60000000D03*
%TO.P,U1,3,OUT*%
%TO.N,Net-(U1-OUT)*%
X154270000Y-57460000D03*
%TD*%
D18*
%TO.P,D5,1,K*%
%TO.N,Net-(D1-A)*%
X148960000Y-57000000D03*
D19*
%TO.P,D5,2,A*%
%TO.N,Net-(D5-A)*%
X151500000Y-57000000D03*
%TD*%
D20*
%TO.P,D4,1,K*%
%TO.N,Net-(D2-A)*%
X135920000Y-61500000D03*
D21*
%TO.P,D4,2,A*%
%TO.N,Net-(D1-A)*%
X146080000Y-61500000D03*
%TD*%
D20*
%TO.P,D1,1,K*%
%TO.N,Net-(D1-K)*%
X135840000Y-57000000D03*
D21*
%TO.P,D1,2,A*%
%TO.N,Net-(D1-A)*%
X146000000Y-57000000D03*
%TD*%
D20*
%TO.P,D2,1,K*%
%TO.N,Net-(D2-K)*%
X122340000Y-61500000D03*
D21*
%TO.P,D2,2,A*%
%TO.N,Net-(D2-A)*%
X132500000Y-61500000D03*
%TD*%
D20*
%TO.P,D3,1,K*%
%TO.N,Net-(D2-K)*%
X122340000Y-57000000D03*
D21*
%TO.P,D3,2,A*%
%TO.N,Net-(D1-K)*%
X132500000Y-57000000D03*
%TD*%
%TA.AperFunction,NonConductor*%
G36*
X175442539Y-53020185D02*
G01*
X175488294Y-53072989D01*
X175499500Y-53124500D01*
X175499500Y-68875500D01*
X175479815Y-68942539D01*
X175427011Y-68988294D01*
X175375500Y-68999500D01*
X111624500Y-68999500D01*
X111557461Y-68979815D01*
X111511706Y-68927011D01*
X111500500Y-68875500D01*
X111500500Y-65499998D01*
X139194532Y-65499998D01*
X139194532Y-65500001D01*
X139214364Y-65726686D01*
X139214366Y-65726697D01*
X139273258Y-65946488D01*
X139273261Y-65946497D01*
X139369431Y-66152732D01*
X139369432Y-66152734D01*
X139499954Y-66339141D01*
X139660858Y-66500045D01*
X139660861Y-66500047D01*
X139847266Y-66630568D01*
X140053504Y-66726739D01*
X140273308Y-66785635D01*
X140435230Y-66799801D01*
X140499998Y-66805468D01*
X140500000Y-66805468D01*
X140500002Y-66805468D01*
X140556673Y-66800509D01*
X140726692Y-66785635D01*
X140946496Y-66726739D01*
X141152734Y-66630568D01*
X141339139Y-66500047D01*
X141500047Y-66339139D01*
X141630568Y-66152734D01*
X141726739Y-65946496D01*
X141785635Y-65726692D01*
X141805468Y-65500000D01*
X141805468Y-65499998D01*
X144194532Y-65499998D01*
X144194532Y-65500001D01*
X144214364Y-65726686D01*
X144214366Y-65726697D01*
X144273258Y-65946488D01*
X144273261Y-65946497D01*
X144369431Y-66152732D01*
X144369432Y-66152734D01*
X144499954Y-66339141D01*
X144660858Y-66500045D01*
X144660861Y-66500047D01*
X144847266Y-66630568D01*
X145053504Y-66726739D01*
X145273308Y-66785635D01*
X145435230Y-66799801D01*
X145499998Y-66805468D01*
X145500000Y-66805468D01*
X145500002Y-66805468D01*
X145556673Y-66800509D01*
X145726692Y-66785635D01*
X145946496Y-66726739D01*
X146152734Y-66630568D01*
X146339139Y-66500047D01*
X146500047Y-66339139D01*
X146630568Y-66152734D01*
X146726739Y-65946496D01*
X146785635Y-65726692D01*
X146805468Y-65500000D01*
X146785635Y-65273308D01*
X146726739Y-65053504D01*
X146630568Y-64847266D01*
X146500047Y-64660861D01*
X146500045Y-64660858D01*
X146339141Y-64499954D01*
X146152734Y-64369432D01*
X146152732Y-64369431D01*
X145946497Y-64273261D01*
X145946488Y-64273258D01*
X145726697Y-64214366D01*
X145726693Y-64214365D01*
X145726692Y-64214365D01*
X145726691Y-64214364D01*
X145726686Y-64214364D01*
X145500002Y-64194532D01*
X145499998Y-64194532D01*
X145273313Y-64214364D01*
X145273302Y-64214366D01*
X145053511Y-64273258D01*
X145053502Y-64273261D01*
X144847267Y-64369431D01*
X144847265Y-64369432D01*
X144660858Y-64499954D01*
X144499954Y-64660858D01*
X144369432Y-64847265D01*
X144369431Y-64847267D01*
X144273261Y-65053502D01*
X144273258Y-65053511D01*
X144214366Y-65273302D01*
X144214364Y-65273313D01*
X144194532Y-65499998D01*
X141805468Y-65499998D01*
X141785635Y-65273308D01*
X141726739Y-65053504D01*
X141630568Y-64847266D01*
X141500047Y-64660861D01*
X141500045Y-64660858D01*
X141339141Y-64499954D01*
X141152734Y-64369432D01*
X141152732Y-64369431D01*
X140946497Y-64273261D01*
X140946488Y-64273258D01*
X140726697Y-64214366D01*
X140726693Y-64214365D01*
X140726692Y-64214365D01*
X140726691Y-64214364D01*
X140726686Y-64214364D01*
X140500002Y-64194532D01*
X140499998Y-64194532D01*
X140273313Y-64214364D01*
X140273302Y-64214366D01*
X140053511Y-64273258D01*
X140053502Y-64273261D01*
X139847267Y-64369431D01*
X139847265Y-64369432D01*
X139660858Y-64499954D01*
X139499954Y-64660858D01*
X139369432Y-64847265D01*
X139369431Y-64847267D01*
X139273261Y-65053502D01*
X139273258Y-65053511D01*
X139214366Y-65273302D01*
X139214364Y-65273313D01*
X139194532Y-65499998D01*
X111500500Y-65499998D01*
X111500500Y-64152135D01*
X147699500Y-64152135D01*
X147699500Y-65847870D01*
X147699501Y-65847876D01*
X147705908Y-65907483D01*
X147756202Y-66042328D01*
X147756206Y-66042335D01*
X147842452Y-66157544D01*
X147842455Y-66157547D01*
X147957664Y-66243793D01*
X147957671Y-66243797D01*
X148092517Y-66294091D01*
X148092516Y-66294091D01*
X148099444Y-66294835D01*
X148152127Y-66300500D01*
X149847872Y-66300499D01*
X149907483Y-66294091D01*
X150042331Y-66243796D01*
X150157546Y-66157546D01*
X150243796Y-66042331D01*
X150294091Y-65907483D01*
X150294092Y-65907472D01*
X150295365Y-65902088D01*
X150329933Y-65841369D01*
X150391841Y-65808978D01*
X150461433Y-65815199D01*
X150503725Y-65842912D01*
X150660858Y-66000045D01*
X150660861Y-66000047D01*
X150847266Y-66130568D01*
X151053504Y-66226739D01*
X151273308Y-66285635D01*
X151435230Y-66299801D01*
X151499998Y-66305468D01*
X151500000Y-66305468D01*
X151500002Y-66305468D01*
X151556807Y-66300498D01*
X151726692Y-66285635D01*
X151946496Y-66226739D01*
X152152734Y-66130568D01*
X152339139Y-66000047D01*
X152500047Y-65839139D01*
X152630568Y-65652734D01*
X152726739Y-65446496D01*
X152785635Y-65226692D01*
X152805468Y-65000000D01*
X152785635Y-64773308D01*
X152726739Y-64553504D01*
X152630568Y-64347266D01*
X152532839Y-64207693D01*
X152500045Y-64160858D01*
X152339141Y-63999954D01*
X152152734Y-63869432D01*
X152152732Y-63869431D01*
X151946497Y-63773261D01*
X151946488Y-63773258D01*
X151726697Y-63714366D01*
X151726693Y-63714365D01*
X151726692Y-63714365D01*
X151726691Y-63714364D01*
X151726686Y-63714364D01*
X151500002Y-63694532D01*
X151499998Y-63694532D01*
X151273313Y-63714364D01*
X151273302Y-63714366D01*
X151053511Y-63773258D01*
X151053502Y-63773261D01*
X150847267Y-63869431D01*
X150847265Y-63869432D01*
X150660862Y-63999951D01*
X150503726Y-64157087D01*
X150442403Y-64190571D01*
X150372711Y-64185587D01*
X150316778Y-64143715D01*
X150295369Y-64097923D01*
X150294091Y-64092518D01*
X150243797Y-63957671D01*
X150243793Y-63957664D01*
X150157547Y-63842455D01*
X150157544Y-63842452D01*
X150042335Y-63756206D01*
X150042328Y-63756202D01*
X149907482Y-63705908D01*
X149907483Y-63705908D01*
X149847883Y-63699501D01*
X149847881Y-63699500D01*
X149847873Y-63699500D01*
X149847864Y-63699500D01*
X148152129Y-63699500D01*
X148152123Y-63699501D01*
X148092516Y-63705908D01*
X147957671Y-63756202D01*
X147957664Y-63756206D01*
X147842455Y-63842452D01*
X147842452Y-63842455D01*
X147756206Y-63957664D01*
X147756202Y-63957671D01*
X147705908Y-64092517D01*
X147699501Y-64152116D01*
X147699500Y-64152135D01*
X111500500Y-64152135D01*
X111500500Y-56952135D01*
X112119500Y-56952135D01*
X112119500Y-60047870D01*
X112119501Y-60047876D01*
X112125908Y-60107483D01*
X112176202Y-60242328D01*
X112176206Y-60242335D01*
X112262452Y-60357544D01*
X112262455Y-60357547D01*
X112377664Y-60443793D01*
X112377671Y-60443797D01*
X112512517Y-60494091D01*
X112512516Y-60494091D01*
X112519444Y-60494835D01*
X112572127Y-60500500D01*
X115667872Y-60500499D01*
X115727483Y-60494091D01*
X115862331Y-60443796D01*
X115977546Y-60357546D01*
X116063796Y-60242331D01*
X116114091Y-60107483D01*
X116120500Y-60047873D01*
X116120499Y-59700023D01*
X116140183Y-59632987D01*
X116192987Y-59587232D01*
X116262146Y-59577288D01*
X116325701Y-59606313D01*
X116343766Y-59625716D01*
X116484254Y-59813387D01*
X116484270Y-59813405D01*
X116686594Y-60015729D01*
X116686612Y-60015745D01*
X116915682Y-60187224D01*
X116915690Y-60187229D01*
X117166833Y-60324364D01*
X117166832Y-60324364D01*
X117166836Y-60324365D01*
X117166839Y-60324367D01*
X117434954Y-60424369D01*
X117434960Y-60424370D01*
X117434962Y-60424371D01*
X117714566Y-60485195D01*
X117714568Y-60485195D01*
X117714572Y-60485196D01*
X117968220Y-60503337D01*
X117999999Y-60505610D01*
X118000000Y-60505610D01*
X118000001Y-60505610D01*
X118028595Y-60503564D01*
X118285428Y-60485196D01*
X118475742Y-60443796D01*
X118565037Y-60424371D01*
X118565037Y-60424370D01*
X118565046Y-60424369D01*
X118833161Y-60324367D01*
X118965444Y-60252135D01*
X120639500Y-60252135D01*
X120639500Y-62747870D01*
X120639501Y-62747876D01*
X120645908Y-62807483D01*
X120696202Y-62942328D01*
X120696206Y-62942335D01*
X120782452Y-63057544D01*
X120782455Y-63057547D01*
X120897664Y-63143793D01*
X120897671Y-63143797D01*
X121032517Y-63194091D01*
X121032516Y-63194091D01*
X121039444Y-63194835D01*
X121092127Y-63200500D01*
X123587872Y-63200499D01*
X123647483Y-63194091D01*
X123782331Y-63143796D01*
X123897546Y-63057546D01*
X123983796Y-62942331D01*
X124034091Y-62807483D01*
X124040500Y-62747873D01*
X124040499Y-61499995D01*
X130794732Y-61499995D01*
X130794732Y-61500004D01*
X130813777Y-61754154D01*
X130813778Y-61754157D01*
X130870492Y-62002637D01*
X130963607Y-62239888D01*
X131091041Y-62460612D01*
X131249950Y-62659877D01*
X131436783Y-62833232D01*
X131647366Y-62976805D01*
X131647371Y-62976807D01*
X131647372Y-62976808D01*
X131647373Y-62976809D01*
X131769328Y-63035538D01*
X131876992Y-63087387D01*
X131876993Y-63087387D01*
X131876996Y-63087389D01*
X132120542Y-63162513D01*
X132372565Y-63200500D01*
X132627435Y-63200500D01*
X132879458Y-63162513D01*
X133123004Y-63087389D01*
X133352634Y-62976805D01*
X133563217Y-62833232D01*
X133750050Y-62659877D01*
X133908959Y-62460612D01*
X133988115Y-62323507D01*
X134038679Y-62275295D01*
X134107286Y-62262071D01*
X134172151Y-62288039D01*
X134212680Y-62344953D01*
X134219500Y-62385510D01*
X134219500Y-62747870D01*
X134219501Y-62747876D01*
X134225908Y-62807483D01*
X134276202Y-62942328D01*
X134276206Y-62942335D01*
X134362452Y-63057544D01*
X134362455Y-63057547D01*
X134477664Y-63143793D01*
X134477671Y-63143797D01*
X134612517Y-63194091D01*
X134612516Y-63194091D01*
X134619444Y-63194835D01*
X134672127Y-63200500D01*
X137167872Y-63200499D01*
X137227483Y-63194091D01*
X137362331Y-63143796D01*
X137477546Y-63057546D01*
X137563796Y-62942331D01*
X137614091Y-62807483D01*
X137620500Y-62747873D01*
X137620499Y-61499995D01*
X144374732Y-61499995D01*
X144374732Y-61500004D01*
X144393777Y-61754154D01*
X144393778Y-61754157D01*
X144450492Y-62002637D01*
X144543607Y-62239888D01*
X144671041Y-62460612D01*
X144829950Y-62659877D01*
X145016783Y-62833232D01*
X145227366Y-62976805D01*
X145227371Y-62976807D01*
X145227372Y-62976808D01*
X145227373Y-62976809D01*
X145349328Y-63035538D01*
X145456992Y-63087387D01*
X145456993Y-63087387D01*
X145456996Y-63087389D01*
X145700542Y-63162513D01*
X145952565Y-63200500D01*
X146207435Y-63200500D01*
X146459458Y-63162513D01*
X146703004Y-63087389D01*
X146932634Y-62976805D01*
X147143217Y-62833232D01*
X147330050Y-62659877D01*
X147488959Y-62460612D01*
X147616393Y-62239888D01*
X147709508Y-62002637D01*
X147766222Y-61754157D01*
X147778167Y-61594758D01*
X147785268Y-61500004D01*
X147785268Y-61498487D01*
X147785420Y-61497967D01*
X147785615Y-61495374D01*
X147786169Y-61495415D01*
X147804953Y-61431448D01*
X147857757Y-61385693D01*
X147926915Y-61375749D01*
X147990471Y-61404774D01*
X147992807Y-61406851D01*
X148053437Y-61462123D01*
X148053439Y-61462125D01*
X148242595Y-61579245D01*
X148242596Y-61579245D01*
X148242599Y-61579247D01*
X148450060Y-61659618D01*
X148668757Y-61700500D01*
X148668759Y-61700500D01*
X148891241Y-61700500D01*
X148891243Y-61700500D01*
X149109940Y-61659618D01*
X149317401Y-61579247D01*
X149506562Y-61462124D01*
X149670981Y-61312236D01*
X149805058Y-61134689D01*
X149904229Y-60935528D01*
X149930734Y-60842371D01*
X149968013Y-60783278D01*
X150031323Y-60753721D01*
X150100562Y-60763083D01*
X150153749Y-60808393D01*
X150169266Y-60842372D01*
X150195769Y-60935523D01*
X150195775Y-60935538D01*
X150294938Y-61134683D01*
X150294943Y-61134691D01*
X150429020Y-61312238D01*
X150593437Y-61462123D01*
X150593439Y-61462125D01*
X150782595Y-61579245D01*
X150782596Y-61579245D01*
X150782599Y-61579247D01*
X150990060Y-61659618D01*
X151208757Y-61700500D01*
X151208759Y-61700500D01*
X151431241Y-61700500D01*
X151431243Y-61700500D01*
X151649940Y-61659618D01*
X151857401Y-61579247D01*
X152046562Y-61462124D01*
X152210981Y-61312236D01*
X152345058Y-61134689D01*
X152444229Y-60935528D01*
X152505115Y-60721536D01*
X152525643Y-60500000D01*
X152525095Y-60494091D01*
X152505115Y-60278464D01*
X152505114Y-60278462D01*
X152497623Y-60252135D01*
X152444229Y-60064472D01*
X152444224Y-60064461D01*
X152345061Y-59865316D01*
X152345056Y-59865308D01*
X152210979Y-59687761D01*
X152046562Y-59537876D01*
X152046560Y-59537874D01*
X151857404Y-59420754D01*
X151857398Y-59420752D01*
X151649940Y-59340382D01*
X151431243Y-59299500D01*
X151208757Y-59299500D01*
X150990060Y-59340382D01*
X150858864Y-59391207D01*
X150782601Y-59420752D01*
X150782595Y-59420754D01*
X150593439Y-59537874D01*
X150593437Y-59537876D01*
X150429020Y-59687761D01*
X150294943Y-59865308D01*
X150294938Y-59865316D01*
X150195775Y-60064461D01*
X150195769Y-60064476D01*
X150169266Y-60157627D01*
X150131987Y-60216721D01*
X150068677Y-60246278D01*
X149999438Y-60236916D01*
X149946251Y-60191606D01*
X149930734Y-60157627D01*
X149904230Y-60064476D01*
X149904229Y-60064472D01*
X149904224Y-60064461D01*
X149805061Y-59865316D01*
X149805056Y-59865308D01*
X149670979Y-59687761D01*
X149506562Y-59537876D01*
X149506560Y-59537874D01*
X149317404Y-59420754D01*
X149317398Y-59420752D01*
X149109940Y-59340382D01*
X148891243Y-59299500D01*
X148668757Y-59299500D01*
X148450060Y-59340382D01*
X148318864Y-59391207D01*
X148242601Y-59420752D01*
X148242595Y-59420754D01*
X148053439Y-59537874D01*
X148053437Y-59537876D01*
X147889020Y-59687761D01*
X147754943Y-59865308D01*
X147754938Y-59865316D01*
X147655775Y-60064461D01*
X147655769Y-60064476D01*
X147594885Y-60278462D01*
X147594885Y-60278463D01*
X147590610Y-60324591D01*
X147564823Y-60389528D01*
X147508021Y-60430215D01*
X147438240Y-60433734D01*
X147377634Y-60398967D01*
X147370208Y-60390479D01*
X147330050Y-60340123D01*
X147143217Y-60166768D01*
X146932634Y-60023195D01*
X146932630Y-60023193D01*
X146932627Y-60023191D01*
X146932626Y-60023190D01*
X146703006Y-59912612D01*
X146703008Y-59912612D01*
X146459466Y-59837489D01*
X146459462Y-59837488D01*
X146459458Y-59837487D01*
X146338231Y-59819214D01*
X146207440Y-59799500D01*
X146207435Y-59799500D01*
X145952565Y-59799500D01*
X145952559Y-59799500D01*
X145795609Y-59823157D01*
X145700542Y-59837487D01*
X145700539Y-59837488D01*
X145700533Y-59837489D01*
X145456992Y-59912612D01*
X145227373Y-60023190D01*
X145227372Y-60023191D01*
X145016782Y-60166768D01*
X144829952Y-60340121D01*
X144829950Y-60340123D01*
X144671041Y-60539388D01*
X144543608Y-60760109D01*
X144450492Y-60997362D01*
X144450490Y-60997369D01*
X144393777Y-61245845D01*
X144374732Y-61499995D01*
X137620499Y-61499995D01*
X137620499Y-60252128D01*
X137614091Y-60192517D01*
X137613751Y-60191606D01*
X137563797Y-60057671D01*
X137563793Y-60057664D01*
X137477547Y-59942455D01*
X137477544Y-59942452D01*
X137362335Y-59856206D01*
X137362328Y-59856202D01*
X137227482Y-59805908D01*
X137227483Y-59805908D01*
X137167883Y-59799501D01*
X137167881Y-59799500D01*
X137167873Y-59799500D01*
X137167864Y-59799500D01*
X134672129Y-59799500D01*
X134672123Y-59799501D01*
X134612516Y-59805908D01*
X134477671Y-59856202D01*
X134477664Y-59856206D01*
X134362455Y-59942452D01*
X134362452Y-59942455D01*
X134276206Y-60057664D01*
X134276202Y-60057671D01*
X134225908Y-60192517D01*
X134220129Y-60246278D01*
X134219501Y-60252123D01*
X134219500Y-60252135D01*
X134219500Y-60614488D01*
X134199815Y-60681527D01*
X134147011Y-60727282D01*
X134077853Y-60737226D01*
X134014297Y-60708201D01*
X133988113Y-60676488D01*
X133908959Y-60539388D01*
X133750050Y-60340123D01*
X133563217Y-60166768D01*
X133352634Y-60023195D01*
X133352630Y-60023193D01*
X133352627Y-60023191D01*
X133352626Y-60023190D01*
X133123006Y-59912612D01*
X133123008Y-59912612D01*
X132879466Y-59837489D01*
X132879462Y-59837488D01*
X132879458Y-59837487D01*
X132758231Y-59819214D01*
X132627440Y-59799500D01*
X132627435Y-59799500D01*
X132372565Y-59799500D01*
X132372559Y-59799500D01*
X132215609Y-59823157D01*
X132120542Y-59837487D01*
X132120539Y-59837488D01*
X132120533Y-59837489D01*
X131876992Y-59912612D01*
X131647373Y-60023190D01*
X131647372Y-60023191D01*
X131436782Y-60166768D01*
X131249952Y-60340121D01*
X131249950Y-60340123D01*
X131091041Y-60539388D01*
X130963608Y-60760109D01*
X130870492Y-60997362D01*
X130870490Y-60997369D01*
X130813777Y-61245845D01*
X130794732Y-61499995D01*
X124040499Y-61499995D01*
X124040499Y-60252128D01*
X124034091Y-60192517D01*
X124033751Y-60191606D01*
X123983797Y-60057671D01*
X123983793Y-60057664D01*
X123897547Y-59942455D01*
X123897544Y-59942452D01*
X123782335Y-59856206D01*
X123782328Y-59856202D01*
X123647482Y-59805908D01*
X123647483Y-59805908D01*
X123587883Y-59799501D01*
X123587881Y-59799500D01*
X123587873Y-59799500D01*
X123587864Y-59799500D01*
X121092129Y-59799500D01*
X121092123Y-59799501D01*
X121032516Y-59805908D01*
X120897671Y-59856202D01*
X120897664Y-59856206D01*
X120782455Y-59942452D01*
X120782452Y-59942455D01*
X120696206Y-60057664D01*
X120696202Y-60057671D01*
X120645908Y-60192517D01*
X120640129Y-60246278D01*
X120639501Y-60252123D01*
X120639500Y-60252135D01*
X118965444Y-60252135D01*
X119084315Y-60187226D01*
X119313395Y-60015739D01*
X119515739Y-59813395D01*
X119687226Y-59584315D01*
X119824367Y-59333161D01*
X119924369Y-59065046D01*
X119926895Y-59053434D01*
X119985195Y-58785433D01*
X119985195Y-58785432D01*
X119985196Y-58785428D01*
X120005610Y-58500000D01*
X119985196Y-58214572D01*
X119976907Y-58176470D01*
X119924371Y-57934962D01*
X119924370Y-57934960D01*
X119924369Y-57934954D01*
X119824367Y-57666839D01*
X119710799Y-57458856D01*
X119687229Y-57415690D01*
X119687224Y-57415682D01*
X119515745Y-57186612D01*
X119515729Y-57186594D01*
X119313405Y-56984270D01*
X119313387Y-56984254D01*
X119084317Y-56812775D01*
X119084309Y-56812770D01*
X118833166Y-56675635D01*
X118833167Y-56675635D01*
X118725915Y-56635632D01*
X118565046Y-56575631D01*
X118565043Y-56575630D01*
X118565037Y-56575628D01*
X118285433Y-56514804D01*
X118000001Y-56494390D01*
X117999999Y-56494390D01*
X117714566Y-56514804D01*
X117434962Y-56575628D01*
X117166833Y-56675635D01*
X116915690Y-56812770D01*
X116915682Y-56812775D01*
X116686612Y-56984254D01*
X116686594Y-56984270D01*
X116484270Y-57186594D01*
X116484254Y-57186612D01*
X116343766Y-57374284D01*
X116287833Y-57416156D01*
X116218141Y-57421140D01*
X116156818Y-57387655D01*
X116123333Y-57326332D01*
X116120499Y-57299974D01*
X116120499Y-56952129D01*
X116120498Y-56952123D01*
X116120497Y-56952116D01*
X116114091Y-56892517D01*
X116084347Y-56812770D01*
X116063797Y-56757671D01*
X116063793Y-56757664D01*
X115977547Y-56642455D01*
X115977544Y-56642452D01*
X115862335Y-56556206D01*
X115862328Y-56556202D01*
X115727482Y-56505908D01*
X115727483Y-56505908D01*
X115667883Y-56499501D01*
X115667881Y-56499500D01*
X115667873Y-56499500D01*
X115667864Y-56499500D01*
X112572129Y-56499500D01*
X112572123Y-56499501D01*
X112512516Y-56505908D01*
X112377671Y-56556202D01*
X112377664Y-56556206D01*
X112262455Y-56642452D01*
X112262452Y-56642455D01*
X112176206Y-56757664D01*
X112176202Y-56757671D01*
X112125908Y-56892517D01*
X112119501Y-56952116D01*
X112119501Y-56952123D01*
X112119500Y-56952135D01*
X111500500Y-56952135D01*
X111500500Y-55752135D01*
X120639500Y-55752135D01*
X120639500Y-58247870D01*
X120639501Y-58247876D01*
X120645908Y-58307483D01*
X120696202Y-58442328D01*
X120696206Y-58442335D01*
X120782452Y-58557544D01*
X120782455Y-58557547D01*
X120897664Y-58643793D01*
X120897671Y-58643797D01*
X121032517Y-58694091D01*
X121032516Y-58694091D01*
X121039444Y-58694835D01*
X121092127Y-58700500D01*
X123587872Y-58700499D01*
X123647483Y-58694091D01*
X123782331Y-58643796D01*
X123897546Y-58557546D01*
X123983796Y-58442331D01*
X124034091Y-58307483D01*
X124040500Y-58247873D01*
X124040499Y-56999995D01*
X130794732Y-56999995D01*
X130794732Y-57000004D01*
X130813777Y-57254154D01*
X130851890Y-57421140D01*
X130870492Y-57502637D01*
X130963607Y-57739888D01*
X131091041Y-57960612D01*
X131249950Y-58159877D01*
X131436783Y-58333232D01*
X131647366Y-58476805D01*
X131647371Y-58476807D01*
X131647372Y-58476808D01*
X131647373Y-58476809D01*
X131769328Y-58535538D01*
X131876992Y-58587387D01*
X131876993Y-58587387D01*
X131876996Y-58587389D01*
X132120542Y-58662513D01*
X132372565Y-58700500D01*
X132627435Y-58700500D01*
X132879458Y-58662513D01*
X133123004Y-58587389D01*
X133352634Y-58476805D01*
X133563217Y-58333232D01*
X133750050Y-58159877D01*
X133908959Y-57960612D01*
X133908963Y-57960605D01*
X133911571Y-57956781D01*
X133912800Y-57957618D01*
X133958643Y-57913878D01*
X134027246Y-57900633D01*
X134092119Y-57926579D01*
X134132667Y-57983480D01*
X134139500Y-58024074D01*
X134139500Y-58247869D01*
X134139501Y-58247876D01*
X134145908Y-58307483D01*
X134196202Y-58442328D01*
X134196206Y-58442335D01*
X134282452Y-58557544D01*
X134282455Y-58557547D01*
X134397664Y-58643793D01*
X134397671Y-58643797D01*
X134532517Y-58694091D01*
X134532516Y-58694091D01*
X134539444Y-58694835D01*
X134592127Y-58700500D01*
X137087872Y-58700499D01*
X137147483Y-58694091D01*
X137282331Y-58643796D01*
X137397546Y-58557546D01*
X137483796Y-58442331D01*
X137534091Y-58307483D01*
X137540500Y-58247873D01*
X137540499Y-56999995D01*
X144294732Y-56999995D01*
X144294732Y-57000004D01*
X144313777Y-57254154D01*
X144351890Y-57421140D01*
X144370492Y-57502637D01*
X144463607Y-57739888D01*
X144591041Y-57960612D01*
X144749950Y-58159877D01*
X144936783Y-58333232D01*
X145147366Y-58476805D01*
X145147371Y-58476807D01*
X145147372Y-58476808D01*
X145147373Y-58476809D01*
X145269328Y-58535538D01*
X145376992Y-58587387D01*
X145376993Y-58587387D01*
X145376996Y-58587389D01*
X145620542Y-58662513D01*
X145872565Y-58700500D01*
X146127435Y-58700500D01*
X146379458Y-58662513D01*
X146623004Y-58587389D01*
X146852634Y-58476805D01*
X147063217Y-58333232D01*
X147250050Y-58159877D01*
X147367406Y-58012716D01*
X147424593Y-57972577D01*
X147494405Y-57969727D01*
X147554675Y-58005072D01*
X147580534Y-58046697D01*
X147616202Y-58142328D01*
X147616206Y-58142335D01*
X147702452Y-58257544D01*
X147702455Y-58257547D01*
X147817664Y-58343793D01*
X147817671Y-58343797D01*
X147952517Y-58394091D01*
X147952516Y-58394091D01*
X147959444Y-58394835D01*
X148012127Y-58400500D01*
X149907872Y-58400499D01*
X149967483Y-58394091D01*
X150102331Y-58343796D01*
X150217546Y-58257546D01*
X150303796Y-58142331D01*
X150332455Y-58065493D01*
X150374326Y-58009559D01*
X150439790Y-57985141D01*
X150508063Y-57999992D01*
X150539866Y-58024843D01*
X150547302Y-58032920D01*
X150548215Y-58033912D01*
X150548222Y-58033918D01*
X150731365Y-58176464D01*
X150731371Y-58176468D01*
X150731374Y-58176470D01*
X150935497Y-58286936D01*
X151049487Y-58326068D01*
X151155015Y-58362297D01*
X151155017Y-58362297D01*
X151155019Y-58362298D01*
X151383951Y-58400500D01*
X151383952Y-58400500D01*
X151616048Y-58400500D01*
X151616049Y-58400500D01*
X151844981Y-58362298D01*
X152064503Y-58286936D01*
X152268626Y-58176470D01*
X152289944Y-58159878D01*
X152330129Y-58128600D01*
X152451784Y-58033913D01*
X152608979Y-57863153D01*
X152612037Y-57858472D01*
X152665179Y-57813113D01*
X152734409Y-57803685D01*
X152797747Y-57833182D01*
X152833780Y-57887969D01*
X152864814Y-57983480D01*
X152875952Y-58017758D01*
X152979783Y-58221538D01*
X153114214Y-58406566D01*
X153275934Y-58568286D01*
X153302227Y-58587389D01*
X153360438Y-58629682D01*
X153403103Y-58685013D01*
X153409082Y-58754626D01*
X153376476Y-58816421D01*
X153360438Y-58830318D01*
X153275932Y-58891715D01*
X153114216Y-59053431D01*
X153114216Y-59053432D01*
X153114214Y-59053434D01*
X153056480Y-59132896D01*
X152979783Y-59238461D01*
X152875950Y-59442244D01*
X152805278Y-59659750D01*
X152805278Y-59659753D01*
X152769500Y-59885646D01*
X152769500Y-60114353D01*
X152805278Y-60340246D01*
X152805278Y-60340249D01*
X152875950Y-60557755D01*
X152875952Y-60557758D01*
X152979783Y-60761538D01*
X153112525Y-60944242D01*
X153136005Y-61010046D01*
X153120180Y-61078100D01*
X153070074Y-61126795D01*
X153055541Y-61133308D01*
X153027670Y-61143703D01*
X153027664Y-61143706D01*
X152912455Y-61229952D01*
X152912452Y-61229955D01*
X152826206Y-61345164D01*
X152826202Y-61345171D01*
X152775908Y-61480017D01*
X152769501Y-61539616D01*
X152769501Y-61539623D01*
X152769500Y-61539635D01*
X152769500Y-63540370D01*
X152769501Y-63540376D01*
X152775908Y-63599983D01*
X152826202Y-63734828D01*
X152826206Y-63734835D01*
X152912452Y-63850044D01*
X152912455Y-63850047D01*
X153027664Y-63936293D01*
X153027671Y-63936297D01*
X153162517Y-63986591D01*
X153162516Y-63986591D01*
X153169444Y-63987335D01*
X153222127Y-63993000D01*
X155317872Y-63992999D01*
X155377483Y-63986591D01*
X155512331Y-63936296D01*
X155627546Y-63850046D01*
X155713796Y-63734831D01*
X155764091Y-63599983D01*
X155770500Y-63540373D01*
X155770499Y-61539628D01*
X155764091Y-61480017D01*
X155757417Y-61462124D01*
X155713797Y-61345171D01*
X155713793Y-61345164D01*
X155627547Y-61229955D01*
X155627544Y-61229952D01*
X155512335Y-61143706D01*
X155512328Y-61143702D01*
X155484459Y-61133308D01*
X155428525Y-61091437D01*
X155404108Y-61025973D01*
X155418960Y-60957700D01*
X155427460Y-60944260D01*
X155560217Y-60761538D01*
X155664048Y-60557758D01*
X155701076Y-60443797D01*
X155734721Y-60340249D01*
X155734721Y-60340248D01*
X155734722Y-60340245D01*
X155770500Y-60114354D01*
X155770500Y-59999992D01*
X168674671Y-59999992D01*
X168674671Y-60000007D01*
X168693964Y-60294363D01*
X168693965Y-60294373D01*
X168693966Y-60294380D01*
X168693968Y-60294390D01*
X168751518Y-60583716D01*
X168751521Y-60583730D01*
X168846349Y-60863080D01*
X168976825Y-61127660D01*
X168976829Y-61127667D01*
X169140725Y-61372955D01*
X169335241Y-61594758D01*
X169517001Y-61754157D01*
X169557043Y-61789273D01*
X169802335Y-61953172D01*
X170066923Y-62083652D01*
X170346278Y-62178481D01*
X170635620Y-62236034D01*
X170663888Y-62237886D01*
X170929993Y-62255329D01*
X170930000Y-62255329D01*
X170930007Y-62255329D01*
X171165675Y-62239881D01*
X171224380Y-62236034D01*
X171513722Y-62178481D01*
X171793077Y-62083652D01*
X172057665Y-61953172D01*
X172302957Y-61789273D01*
X172524758Y-61594758D01*
X172719273Y-61372957D01*
X172883172Y-61127665D01*
X173013652Y-60863077D01*
X173108481Y-60583722D01*
X173166034Y-60294380D01*
X173173057Y-60187226D01*
X173185329Y-60000007D01*
X173185329Y-59999992D01*
X173166035Y-59705636D01*
X173166034Y-59705620D01*
X173108481Y-59416278D01*
X173013652Y-59136923D01*
X172883172Y-58872336D01*
X172719273Y-58627043D01*
X172667742Y-58568283D01*
X172524758Y-58405241D01*
X172302955Y-58210725D01*
X172057667Y-58046829D01*
X172057660Y-58046825D01*
X171793080Y-57916349D01*
X171513730Y-57821521D01*
X171513724Y-57821519D01*
X171513722Y-57821519D01*
X171224380Y-57763966D01*
X171224373Y-57763965D01*
X171224363Y-57763964D01*
X170930007Y-57744671D01*
X170929993Y-57744671D01*
X170635636Y-57763964D01*
X170635624Y-57763965D01*
X170635620Y-57763966D01*
X170635612Y-57763967D01*
X170635609Y-57763968D01*
X170346283Y-57821518D01*
X170346269Y-57821521D01*
X170066919Y-57916349D01*
X169802334Y-58046828D01*
X169557041Y-58210728D01*
X169335241Y-58405241D01*
X169140728Y-58627041D01*
X168976828Y-58872334D01*
X168846349Y-59136919D01*
X168751521Y-59416269D01*
X168751518Y-59416283D01*
X168693968Y-59705609D01*
X168693964Y-59705636D01*
X168674671Y-59999992D01*
X155770500Y-59999992D01*
X155770500Y-59885646D01*
X155734722Y-59659755D01*
X155734721Y-59659751D01*
X155734721Y-59659750D01*
X155664049Y-59442244D01*
X155608471Y-59333166D01*
X155560217Y-59238462D01*
X155425786Y-59053434D01*
X155264066Y-58891714D01*
X155179559Y-58830316D01*
X155136896Y-58774988D01*
X155130917Y-58705375D01*
X155163523Y-58643580D01*
X155179556Y-58629685D01*
X155264066Y-58568286D01*
X155425786Y-58406566D01*
X155560217Y-58221538D01*
X155664048Y-58017758D01*
X155714283Y-57863150D01*
X155734721Y-57800249D01*
X155734721Y-57800248D01*
X155734722Y-57800245D01*
X155770500Y-57574354D01*
X155770500Y-57345646D01*
X155734722Y-57119755D01*
X155734721Y-57119751D01*
X155734721Y-57119750D01*
X155664049Y-56902244D01*
X155590382Y-56757664D01*
X155560217Y-56698462D01*
X155425786Y-56513434D01*
X155264066Y-56351714D01*
X155079038Y-56217283D01*
X155012861Y-56183564D01*
X154875255Y-56113450D01*
X154657748Y-56042778D01*
X154445971Y-56009236D01*
X154431854Y-56007000D01*
X154108146Y-56007000D01*
X154094029Y-56009236D01*
X153882253Y-56042778D01*
X153882250Y-56042778D01*
X153664744Y-56113450D01*
X153460961Y-56217283D01*
X153402017Y-56260109D01*
X153275934Y-56351714D01*
X153275932Y-56351716D01*
X153275931Y-56351716D01*
X153114215Y-56513432D01*
X153052706Y-56598092D01*
X152997375Y-56640757D01*
X152927762Y-56646736D01*
X152865967Y-56614130D01*
X152832182Y-56555645D01*
X152829157Y-56543700D01*
X152735924Y-56331151D01*
X152608983Y-56136852D01*
X152608980Y-56136849D01*
X152608979Y-56136847D01*
X152451784Y-55966087D01*
X152451779Y-55966083D01*
X152451777Y-55966081D01*
X152268634Y-55823535D01*
X152268628Y-55823531D01*
X152064504Y-55713064D01*
X152064495Y-55713061D01*
X151844984Y-55637702D01*
X151654450Y-55605908D01*
X151616049Y-55599500D01*
X151383951Y-55599500D01*
X151345550Y-55605908D01*
X151155015Y-55637702D01*
X150935504Y-55713061D01*
X150935495Y-55713064D01*
X150731371Y-55823531D01*
X150731365Y-55823535D01*
X150548222Y-55966081D01*
X150548218Y-55966085D01*
X150539866Y-55975158D01*
X150479979Y-56011148D01*
X150410141Y-56009047D01*
X150352525Y-55969522D01*
X150332455Y-55934507D01*
X150303797Y-55857671D01*
X150303793Y-55857664D01*
X150217547Y-55742455D01*
X150217544Y-55742452D01*
X150102335Y-55656206D01*
X150102328Y-55656202D01*
X149967482Y-55605908D01*
X149967483Y-55605908D01*
X149907883Y-55599501D01*
X149907881Y-55599500D01*
X149907873Y-55599500D01*
X149907864Y-55599500D01*
X148012129Y-55599500D01*
X148012123Y-55599501D01*
X147952516Y-55605908D01*
X147817671Y-55656202D01*
X147817664Y-55656206D01*
X147702455Y-55742452D01*
X147702452Y-55742455D01*
X147616206Y-55857664D01*
X147616203Y-55857669D01*
X147580534Y-55953303D01*
X147538662Y-56009236D01*
X147473198Y-56033653D01*
X147404925Y-56018801D01*
X147367407Y-55987283D01*
X147250050Y-55840123D01*
X147063217Y-55666768D01*
X146852634Y-55523195D01*
X146852630Y-55523193D01*
X146852627Y-55523191D01*
X146852626Y-55523190D01*
X146623006Y-55412612D01*
X146623008Y-55412612D01*
X146379466Y-55337489D01*
X146379462Y-55337488D01*
X146379458Y-55337487D01*
X146258231Y-55319214D01*
X146127440Y-55299500D01*
X146127435Y-55299500D01*
X145872565Y-55299500D01*
X145872559Y-55299500D01*
X145715609Y-55323157D01*
X145620542Y-55337487D01*
X145620539Y-55337488D01*
X145620533Y-55337489D01*
X145376992Y-55412612D01*
X145147373Y-55523190D01*
X145147372Y-55523191D01*
X144936782Y-55666768D01*
X144749952Y-55840121D01*
X144749950Y-55840123D01*
X144591041Y-56039388D01*
X144463608Y-56260109D01*
X144370492Y-56497362D01*
X144370490Y-56497369D01*
X144313777Y-56745845D01*
X144294732Y-56999995D01*
X137540499Y-56999995D01*
X137540499Y-55752128D01*
X137534091Y-55692517D01*
X137524487Y-55666768D01*
X137483797Y-55557671D01*
X137483793Y-55557664D01*
X137397547Y-55442455D01*
X137397544Y-55442452D01*
X137282335Y-55356206D01*
X137282328Y-55356202D01*
X137147482Y-55305908D01*
X137147483Y-55305908D01*
X137087883Y-55299501D01*
X137087881Y-55299500D01*
X137087873Y-55299500D01*
X137087864Y-55299500D01*
X134592129Y-55299500D01*
X134592123Y-55299501D01*
X134532516Y-55305908D01*
X134397671Y-55356202D01*
X134397664Y-55356206D01*
X134282455Y-55442452D01*
X134282452Y-55442455D01*
X134196206Y-55557664D01*
X134196202Y-55557671D01*
X134145908Y-55692517D01*
X134140540Y-55742452D01*
X134139501Y-55752123D01*
X134139500Y-55752135D01*
X134139500Y-55975923D01*
X134119815Y-56042962D01*
X134067011Y-56088717D01*
X133997853Y-56098661D01*
X133934297Y-56069636D01*
X133912155Y-56042820D01*
X133911571Y-56043219D01*
X133908961Y-56039391D01*
X133886438Y-56011148D01*
X133750050Y-55840123D01*
X133563217Y-55666768D01*
X133352634Y-55523195D01*
X133352630Y-55523193D01*
X133352627Y-55523191D01*
X133352626Y-55523190D01*
X133123006Y-55412612D01*
X133123008Y-55412612D01*
X132879466Y-55337489D01*
X132879462Y-55337488D01*
X132879458Y-55337487D01*
X132758231Y-55319214D01*
X132627440Y-55299500D01*
X132627435Y-55299500D01*
X132372565Y-55299500D01*
X132372559Y-55299500D01*
X132215609Y-55323157D01*
X132120542Y-55337487D01*
X132120539Y-55337488D01*
X132120533Y-55337489D01*
X131876992Y-55412612D01*
X131647373Y-55523190D01*
X131647372Y-55523191D01*
X131436782Y-55666768D01*
X131249952Y-55840121D01*
X131249950Y-55840123D01*
X131091041Y-56039388D01*
X130963608Y-56260109D01*
X130870492Y-56497362D01*
X130870490Y-56497369D01*
X130813777Y-56745845D01*
X130794732Y-56999995D01*
X124040499Y-56999995D01*
X124040499Y-55752128D01*
X124034091Y-55692517D01*
X124024487Y-55666768D01*
X123983797Y-55557671D01*
X123983793Y-55557664D01*
X123897547Y-55442455D01*
X123897544Y-55442452D01*
X123782335Y-55356206D01*
X123782328Y-55356202D01*
X123647482Y-55305908D01*
X123647483Y-55305908D01*
X123587883Y-55299501D01*
X123587881Y-55299500D01*
X123587873Y-55299500D01*
X123587864Y-55299500D01*
X121092129Y-55299500D01*
X121092123Y-55299501D01*
X121032516Y-55305908D01*
X120897671Y-55356202D01*
X120897664Y-55356206D01*
X120782455Y-55442452D01*
X120782452Y-55442455D01*
X120696206Y-55557664D01*
X120696202Y-55557671D01*
X120645908Y-55692517D01*
X120640540Y-55742452D01*
X120639501Y-55752123D01*
X120639500Y-55752135D01*
X111500500Y-55752135D01*
X111500500Y-53124500D01*
X111520185Y-53057461D01*
X111572989Y-53011706D01*
X111624500Y-53000500D01*
X175375500Y-53000500D01*
X175442539Y-53020185D01*
G37*
%TD.AperFunction*%
M02*
